<?xml version="1.0" standalone="no"?>
<!DOCTYPE svg PUBLIC "-//W3C//DTD SVG 1.1//EN" "http://www.w3.org/Graphics/SVG/1.1/DTD/svg11.dtd" >
<svg xmlns="http://www.w3.org/2000/svg" xmlns:xlink="http://www.w3.org/1999/xlink" version="1.1" viewBox="-10 0 2058 2048">
   <path fill="currentColor"
d="M1024 1504q54 0 97.5 25.5t69 69t25.5 97.5t-25.5 97.5t-69 69t-97.5 25.5t-97.5 -25.5t-69 -69t-25.5 -97.5t25.5 -97.5t69 -69t97.5 -25.5zM832 531v13v114h-384v-114q0 -104 77.5 -192.5t211.5 -140t287 -51.5t287.5 51.5t211.5 140t77 192.5q0 189 -249 343
q-135 72 -135 216v209h-384v-192q0 -89 36 -164.5t86.5 -124.5t99.5 -70q162 -70 162 -217q0 -54 -25.5 -97.5t-69 -69t-97.5 -25.5t-97.5 25.5t-69 69t-25.5 84.5z" />
</svg>
