<svg xmlns="http://www.w3.org/2000/svg" viewBox="0 -0.5 13 13" shape-rendering="crispEdges">
<path stroke="#a0b0e4" d="M0 0h1" />
<path stroke="#bbc7ed" d="M1 0h4" />
<path stroke="#bbc6ed" d="M5 0h1" />
<path stroke="#bbc5ec" d="M6 0h1" />
<path stroke="#bac4ec" d="M7 0h1" />
<path stroke="#bbc3eb" d="M8 0h1" />
<path stroke="#bac2eb" d="M9 0h3" />
<path stroke="#9da7e1" d="M12 0h1" />
<path stroke="#bac3ec" d="M0 1h1" />
<path stroke="#b59fc0" d="M1 1h1" />
<path stroke="#b28dab" d="M2 1h1" />
<path stroke="#b0839f" d="M3 1h1" />
<path stroke="#af7f9b" d="M4 1h1" />
<path stroke="#af7b97" d="M5 1h1M1 5h1M2 7h1" />
<path stroke="#af7995" d="M6 1h1" />
<path stroke="#ae7893" d="M7 1h1" />
<path stroke="#ad748f" d="M8 1h1" />
<path stroke="#ac6f89" d="M9 1h1" />
<path stroke="#aa6781" d="M10 1h1" />
<path stroke="#a781a2" d="M11 1h1" />
<path stroke="#b8bce9" d="M12 1h1" />
<path stroke="#bbc4ed" d="M0 2h1M0 3h1" />
<path stroke="#b28fae" d="M1 2h1" />
<path stroke="#b397b7" d="M2 2h1" />
<path stroke="#b18cab" d="M3 2h1" />
<path stroke="#b085a3" d="M4 2h1" />
<path stroke="#b0819f" d="M5 2h1" />
<path stroke="#af7e9b" d="M6 2h1" />
<path stroke="#af7c9a" d="M7 2h1" />
<path stroke="#ae7995" d="M8 2h1" />
<path stroke="#ad738f" d="M9 2h1" />
<path stroke="#ab6b86" d="M10 2h1" />
<path stroke="#9b5f7b" d="M11 2h1" />
<path stroke="#b9bbe9" d="M12 2h1" />
<path stroke="#b085a2" d="M1 3h1" />
<path stroke="#b28dac" d="M2 3h1" />
<path stroke="#ffffff" d="M3 3h2M8 3h2M3 4h3M7 4h3M4 5h5M5 6h3M4 7h5M3 8h3M7 8h3M3 9h2M8 9h2" />
<path stroke="#ae7997" d="M5 3h1" />
<path stroke="#ae7591" d="M6 3h1" />
<path stroke="#ad718c" d="M7 3h1" />
<path stroke="#ab6984" d="M10 3h1" />
<path stroke="#9b617d" d="M11 3h1" />
<path stroke="#b9bcea" d="M12 3h1" />
<path stroke="#bbc3ed" d="M0 4h1" />
<path stroke="#b07f9c" d="M1 4h1" />
<path stroke="#b186a3" d="M2 4h1" />
<path stroke="#ae718c" d="M6 4h1" />
<path stroke="#ab6983" d="M10 4h1" />
<path stroke="#9d637f" d="M11 4h1" />
<path stroke="#babdeb" d="M12 4h1" />
<path stroke="#bbc3ee" d="M0 5h1" />
<path stroke="#b0819e" d="M2 5h1" />
<path stroke="#b07d9b" d="M3 5h1M2 6h1" />
<path stroke="#ad677e" d="M9 5h1" />
<path stroke="#ac6980" d="M10 5h1" />
<path stroke="#9f627e" d="M11 5h1" />
<path stroke="#bbbeeb" d="M12 5h1" />
<path stroke="#bbc4ee" d="M0 6h1" />
<path stroke="#af7893" d="M1 6h1" />
<path stroke="#b07d9a" d="M3 6h1" />
<path stroke="#af7996" d="M4 6h1" />
<path stroke="#ae6a80" d="M8 6h1" />
<path stroke="#ae697d" d="M9 6h1" />
<path stroke="#ad687e" d="M10 6h1" />
<path stroke="#9e617c" d="M11 6h1" />
<path stroke="#bbbeec" d="M12 6h1" />
<path stroke="#bcc5ee" d="M0 7h1" />
<path stroke="#ae748d" d="M1 7h1" />
<path stroke="#b07c99" d="M3 7h1" />
<path stroke="#b16b7d" d="M9 7h1" />
<path stroke="#af687c" d="M10 7h1" />
<path stroke="#a1617a" d="M11 7h1" />
<path stroke="#bbc0ed" d="M12 7h1" />
<path stroke="#bdc7f0" d="M0 8h1" />
<path stroke="#ae7088" d="M1 8h1" />
<path stroke="#af7892" d="M2 8h1" />
<path stroke="#b1788d" d="M6 8h1" />
<path stroke="#b06878" d="M10 8h1" />
<path stroke="#a26076" d="M11 8h1" />
<path stroke="#bcc2ee" d="M12 8h1" />
<path stroke="#bec9f1" d="M0 9h1" />
<path stroke="#ae6e84" d="M1 9h1" />
<path stroke="#b0768d" d="M2 9h1" />
<path stroke="#b17990" d="M5 9h1" />
<path stroke="#b2778b" d="M6 9h1" />
<path stroke="#b37586" d="M7 9h1" />
<path stroke="#b16775" d="M10 9h1" />
<path stroke="#a35f72" d="M11 9h1" />
<path stroke="#bdc4f0" d="M12 9h1" />
<path stroke="#becbf2" d="M0 10h1" />
<path stroke="#ac6b7e" d="M1 10h1" />
<path stroke="#ae7186" d="M2 10h1" />
<path stroke="#af768c" d="M3 10h2" />
<path stroke="#af758a" d="M5 10h1" />
<path stroke="#b07487" d="M6 10h1" />
<path stroke="#b17283" d="M7 10h1" />
<path stroke="#b26e7d" d="M8 10h1" />
<path stroke="#b26a78" d="M9 10h1" />
<path stroke="#af6573" d="M10 10h1" />
<path stroke="#9f5d72" d="M11 10h1" />
<path stroke="#bdc5f0" d="M12 10h1" />
<path stroke="#bfcdf2" d="M0 11h1M2 12h4" />
<path stroke="#ac8ca6" d="M1 11h1" />
<path stroke="#9e677d" d="M2 11h1" />
<path stroke="#9f6b80" d="M3 11h1" />
<path stroke="#9f6b81" d="M4 11h1" />
<path stroke="#a06a80" d="M5 11h1" />
<path stroke="#a16a7e" d="M6 11h1" />
<path stroke="#a4697b" d="M7 11h1" />
<path stroke="#a46679" d="M8 11h1" />
<path stroke="#a36375" d="M9 11h1" />
<path stroke="#a16073" d="M10 11h1" />
<path stroke="#a684a1" d="M11 11h1" />
<path stroke="#bec7f1" d="M12 11h1" />
<path stroke="#a5baed" d="M0 12h1" />
<path stroke="#bfcdf3" d="M1 12h1" />
<path stroke="#bfccf2" d="M6 12h4" />
<path stroke="#bfcbf2" d="M10 12h1" />
<path stroke="#bec9f2" d="M11 12h1" />
<path stroke="#a3b2eb" d="M12 12h1" />
</svg>