<svg xmlns="http://www.w3.org/2000/svg" viewBox="0 -0.5 13 13" shape-rendering="crispEdges">
<path stroke="#417cea" d="M0 0h1" />
<path stroke="#fbfcff" d="M1 0h1M11 0h1M0 1h1M12 1h1M12 11h1M11 12h1" />
<path stroke="#ffffff" d="M2 0h9M0 2h1M12 2h1M0 3h1M3 3h2M8 3h2M12 3h1M0 4h1M3 4h3M7 4h3M12 4h1M0 5h1M4 5h5M12 5h1M0 6h1M5 6h3M12 6h1M0 7h1M4 7h5M12 7h1M0 8h1M3 8h3M7 8h3M12 8h1M0 9h1M3 9h2M8 9h2M12 9h1M0 10h1M12 10h1M2 12h9" />
<path stroke="#4275e1" d="M12 0h1" />
<path stroke="#f3b6a7" d="M1 1h1" />
<path stroke="#ed937d" d="M2 1h1" />
<path stroke="#e98066" d="M3 1h1" />
<path stroke="#e8785d" d="M4 1h1M1 4h1" />
<path stroke="#e77256" d="M5 1h1" />
<path stroke="#e76f53" d="M6 1h1" />
<path stroke="#e66d50" d="M7 1h1" />
<path stroke="#e56748" d="M8 1h1" />
<path stroke="#e35f3e" d="M9 1h1M1 7h1" />
<path stroke="#df512d" d="M10 1h1" />
<path stroke="#db8671" d="M11 1h1" />
<path stroke="#ee9782" d="M1 2h1" />
<path stroke="#f0a896" d="M2 2h1" />
<path stroke="#ec947d" d="M3 2h1" />
<path stroke="#ea866d" d="M4 2h1" />
<path stroke="#e97f66" d="M5 2h1" />
<path stroke="#e87a5f" d="M6 2h1" />
<path stroke="#e8775c" d="M7 2h1" />
<path stroke="#e77154" d="M8 2h1" />
<path stroke="#e56849" d="M9 2h1" />
<path stroke="#e15937" d="M10 2h1" />
<path stroke="#c24222" d="M11 2h1" />
<path stroke="#ea836a" d="M1 3h1" />
<path stroke="#ed957e" d="M2 3h1" />
<path stroke="#e66f55" d="M5 3h1" />
<path stroke="#e5674a" d="M6 3h1" />
<path stroke="#e46040" d="M7 3h1" />
<path stroke="#e05431" d="M10 3h1" />
<path stroke="#c24525" d="M11 3h1" />
<path stroke="#ea866c" d="M2 4h1" />
<path stroke="#e45e3e" d="M6 4h1" />
<path stroke="#e0512d" d="M10 4h1" />
<path stroke="#c34626" d="M11 4h1" />
<path stroke="#e77054" d="M1 5h1M3 7h1" />
<path stroke="#e87c62" d="M2 5h1" />
<path stroke="#e8755c" d="M3 5h1" />
<path stroke="#e24c23" d="M9 5h1" />
<path stroke="#e15028" d="M10 5h1" />
<path stroke="#c64423" d="M11 5h1" />
<path stroke="#e5684b" d="M1 6h1" />
<path stroke="#e87359" d="M2 6h1" />
<path stroke="#e77258" d="M3 6h1" />
<path stroke="#e66c4f" d="M4 6h1" />
<path stroke="#e55124" d="M8 6h1" />
<path stroke="#e54e1f" d="M9 6h1" />
<path stroke="#e34e22" d="M10 6h1" />
<path stroke="#c5421e" d="M11 6h1" />
<path stroke="#e66d51" d="M2 7h1" />
<path stroke="#e8501c" d="M9 7h1" />
<path stroke="#e54c1a" d="M10 7h1" />
<path stroke="#c93e17" d="M11 7h1" />
<path stroke="#e25431" d="M1 8h1" />
<path stroke="#e46546" d="M2 8h1" />
<path stroke="#e8653b" d="M6 8h1" />
<path stroke="#e64711" d="M10 8h1" />
<path stroke="#ca380d" d="M11 8h1" />
<path stroke="#e04b26" d="M1 9h1" />
<path stroke="#e35b39" d="M2 9h1" />
<path stroke="#e6633e" d="M5 9h1" />
<path stroke="#e76035" d="M6 9h1" />
<path stroke="#e95c2b" d="M7 9h1" />
<path stroke="#e64109" d="M10 9h1" />
<path stroke="#c93104" d="M11 9h1" />
<path stroke="#db4019" d="M1 10h1" />
<path stroke="#de4d29" d="M2 10h1" />
<path stroke="#e05734" d="M3 10h1" />
<path stroke="#e15734" d="M4 10h1" />
<path stroke="#e15731" d="M5 10h1" />
<path stroke="#e3552a" d="M6 10h1" />
<path stroke="#e55223" d="M7 10h1" />
<path stroke="#e64c18" d="M8 10h1" />
<path stroke="#e6440d" d="M9 10h1" />
<path stroke="#e13a04" d="M10 10h1" />
<path stroke="#c22b01" d="M11 10h1" />
<path stroke="#fbfdff" d="M0 11h1M1 12h1" />
<path stroke="#d97f68" d="M1 11h1" />
<path stroke="#bd3615" d="M2 11h1" />
<path stroke="#c03d1c" d="M3 11h1" />
<path stroke="#c03e1d" d="M4 11h1" />
<path stroke="#c23d1b" d="M5 11h1" />
<path stroke="#c33d18" d="M6 11h1" />
<path stroke="#c93b12" d="M7 11h1" />
<path stroke="#c9370d" d="M8 11h1" />
<path stroke="#c83206" d="M9 11h1" />
<path stroke="#c32c01" d="M10 11h1" />
<path stroke="#ce765f" d="M11 11h1" />
<path stroke="#4188fc" d="M0 12h1" />
<path stroke="#417cf7" d="M12 12h1" />
</svg>