<svg xmlns="http://www.w3.org/2000/svg" viewBox="0 -0.5 13 13" shape-rendering="crispEdges">
<path stroke="#c4d7f8" d="M0 0h1" />
<path stroke="#ffffff" d="M1 0h11M0 1h1M12 1h1M0 2h1M12 2h1M0 3h1M12 3h1M0 4h1M12 4h1M0 5h1M12 5h1M0 6h1M12 6h1M0 7h1M12 7h1M0 8h1M12 8h1M0 9h1M12 9h1M0 10h1M12 10h1M0 11h1M12 11h1M1 12h9" />
<path stroke="#c4d5f6" d="M12 0h1" />
<path stroke="#977167" d="M1 1h1" />
<path stroke="#6b220f" d="M2 1h1" />
<path stroke="#722410" d="M3 1h1" />
<path stroke="#7b2711" d="M4 1h1" />
<path stroke="#8a2b14" d="M5 1h1" />
<path stroke="#8c2c14" d="M6 1h1" />
<path stroke="#952f15" d="M7 1h1" />
<path stroke="#9a3116" d="M8 1h1M1 8h1" />
<path stroke="#9f3217" d="M9 1h2" />
<path stroke="#c7806e" d="M11 1h1M1 11h1" />
<path stroke="#6d2310" d="M1 2h1" />
<path stroke="#912d14" d="M2 2h1" />
<path stroke="#9d3016" d="M3 2h1" />
<path stroke="#a73317" d="M4 2h1" />
<path stroke="#ae3619" d="M5 2h1M2 5h1" />
<path stroke="#b4381a" d="M6 2h1M2 6h1" />
<path stroke="#b83a1b" d="M7 2h1" />
<path stroke="#bb3b1b" d="M8 2h1M3 7h1" />
<path stroke="#bb3c1b" d="M9 2h1M2 8h1" />
<path stroke="#bc3c1b" d="M10 2h2M2 9h1M2 10h1M2 11h1" />
<path stroke="#762511" d="M1 3h1" />
<path stroke="#9c3016" d="M2 3h1" />
<path stroke="#e29d89" d="M3 3h2M8 3h2M3 4h3M7 4h3M4 5h5M5 6h3M4 7h5M3 8h3M7 8h3M3 9h2M8 9h2" />
<path stroke="#b53719" d="M5 3h1" />
<path stroke="#b9391a" d="M6 3h1" />
<path stroke="#bb3a1b" d="M7 3h1" />
<path stroke="#be3d1c" d="M10 3h1M3 10h1" />
<path stroke="#bf3d1c" d="M11 3h1M11 4h1M3 11h2" />
<path stroke="#7e2812" d="M1 4h1" />
<path stroke="#a63317" d="M2 4h1" />
<path stroke="#bc3a1b" d="M6 4h1" />
<path stroke="#c03e1d" d="M10 4h1M11 5h1M4 10h1M5 11h1" />
<path stroke="#882b13" d="M1 5h1" />
<path stroke="#b6381a" d="M3 5h1" />
<path stroke="#c2401e" d="M9 5h1" />
<path stroke="#c2401d" d="M10 5h1M5 10h1" />
<path stroke="#8d2d14" d="M1 6h1" />
<path stroke="#ba391a" d="M3 6h1" />
<path stroke="#bc3b1b" d="M4 6h1" />
<path stroke="#c7441f" d="M8 6h1" />
<path stroke="#c74520" d="M9 6h1M6 9h1M11 9h1" />
<path stroke="#c6441f" d="M10 6h1M11 8h1M6 10h1M11 10h1M8 11h1M10 11h1" />
<path stroke="#c3411e" d="M11 6h1M5 9h1M6 11h1" />
<path stroke="#962f15" d="M1 7h1" />
<path stroke="#b93a1b" d="M2 7h1" />
<path stroke="#cc4a22" d="M9 7h1M10 8h1" />
<path stroke="#ca4721" d="M10 7h1" />
<path stroke="#c5431f" d="M11 7h1M7 11h1" />
<path stroke="#c74420" d="M6 8h1" />
<path stroke="#9e3217" d="M1 9h1" />
<path stroke="#cb4922" d="M7 9h1" />
<path stroke="#cd4a22" d="M10 9h1M9 10h1" />
<path stroke="#a13317" d="M1 10h1" />
<path stroke="#c94721" d="M7 10h1" />
<path stroke="#cc4922" d="M8 10h1" />
<path stroke="#cb4921" d="M10 10h1" />
<path stroke="#c84620" d="M9 11h1" />
<path stroke="#da8872" d="M11 11h1" />
<path stroke="#c4dbfc" d="M0 12h1" />
<path stroke="#fefefe" d="M10 12h1" />
<path stroke="#fdfdfd" d="M11 12h1" />
<path stroke="#c2d4f9" d="M12 12h1" />
</svg>