<svg xmlns="http://www.w3.org/2000/svg" viewBox="0 -0.5 21 21" shape-rendering="crispEdges">
<path stroke="#7993de" d="M0 0h1" />
<path stroke="#8ea6e3" d="M1 0h1" />
<path stroke="#b5c5ee" d="M2 0h1" />
<path stroke="#bdccf0" d="M3 0h3" />
<path stroke="#bdcbef" d="M6 0h5" />
<path stroke="#bdcaef" d="M11 0h1" />
<path stroke="#bdcaee" d="M12 0h2" />
<path stroke="#bcc9ee" d="M14 0h1" />
<path stroke="#bcc8ee" d="M15 0h1" />
<path stroke="#bcc8ed" d="M16 0h1" />
<path stroke="#bcc7ed" d="M17 0h2" />
<path stroke="#8b9bde" d="M19 0h1" />
<path stroke="#7680d7" d="M20 0h1" />
<path stroke="#8da4e2" d="M0 1h1" />
<path stroke="#b9bbdc" d="M1 1h1" />
<path stroke="#b28fa8" d="M2 1h1" />
<path stroke="#b1869e" d="M3 1h1" />
<path stroke="#af8198" d="M4 1h1" />
<path stroke="#af7d94" d="M5 1h1" />
<path stroke="#af7b91" d="M6 1h1" />
<path stroke="#ae788e" d="M7 1h1" />
<path stroke="#ae798f" d="M8 1h1" />
<path stroke="#ae768c" d="M9 1h2" />
<path stroke="#ad758b" d="M11 1h1" />
<path stroke="#ad758a" d="M12 1h1" />
<path stroke="#ad7186" d="M13 1h1" />
<path stroke="#ac7086" d="M14 1h1" />
<path stroke="#ac6e84" d="M15 1h1" />
<path stroke="#ab6a80" d="M16 1h1" />
<path stroke="#a9657b" d="M17 1h1" />
<path stroke="#a36b85" d="M18 1h1" />
<path stroke="#b2aed4" d="M19 1h1" />
<path stroke="#8993dc" d="M20 1h1" />
<path stroke="#bbc8ee" d="M0 2h1" />
<path stroke="#b28ea8" d="M1 2h1" />
<path stroke="#b399b5" d="M2 2h1" />
<path stroke="#b49bb7" d="M3 2h1" />
<path stroke="#b294af" d="M4 2h1" />
<path stroke="#b18da7" d="M5 2h1" />
<path stroke="#b189a4" d="M6 2h1" />
<path stroke="#b186a1" d="M7 2h1" />
<path stroke="#b0849f" d="M8 2h1M3 8h1" />
<path stroke="#b0829d" d="M9 2h1" />
<path stroke="#af819c" d="M10 2h1" />
<path stroke="#af819b" d="M11 2h1" />
<path stroke="#af7f99" d="M12 2h1" />
<path stroke="#af7d97" d="M13 2h1" />
<path stroke="#ae7a94" d="M14 2h1" />
<path stroke="#ae7790" d="M15 2h1" />
<path stroke="#ad728b" d="M16 2h1" />
<path stroke="#ab6b84" d="M17 2h1" />
<path stroke="#a2637c" d="M18 2h1" />
<path stroke="#956582" d="M19 2h1" />
<path stroke="#b0b7e8" d="M20 2h1" />
<path stroke="#bbc7ed" d="M0 3h1M0 4h1" />
<path stroke="#b086a0" d="M1 3h1" />
<path stroke="#b49bb9" d="M2 3h1" />
<path stroke="#b49cba" d="M3 3h1" />
<path stroke="#b295b1" d="M4 3h1" />
<path stroke="#b28fa9" d="M5 3h1" />
<path stroke="#b18ba5" d="M6 3h1" />
<path stroke="#b187a3" d="M7 3h1M3 7h1" />
<path stroke="#b085a0" d="M8 3h1" />
<path stroke="#af839f" d="M9 3h1" />
<path stroke="#b0819d" d="M10 3h1M3 9h1" />
<path stroke="#b0809d" d="M11 3h1M5 7h1M4 9h1" />
<path stroke="#af7e9b" d="M12 3h1" />
<path stroke="#af7c99" d="M13 3h1" />
<path stroke="#ae7995" d="M14 3h1M11 4h1" />
<path stroke="#ae7691" d="M15 3h1M13 4h1M9 6h1" />
<path stroke="#ad738d" d="M16 3h1" />
<path stroke="#ab6d86" d="M17 3h1" />
<path stroke="#a3647e" d="M18 3h1" />
<path stroke="#8f5875" d="M19 3h1" />
<path stroke="#b9bdea" d="M20 3h1" />
<path stroke="#b0809a" d="M1 4h1" />
<path stroke="#b395b2" d="M2 4h1" />
<path stroke="#b396b3" d="M3 4h1" />
<path stroke="#b290ac" d="M4 4h1" />
<path stroke="#b18aa5" d="M5 4h1M4 5h1" />
<path stroke="#b187a1" d="M6 4h1" />
<path stroke="#b0839f" d="M7 4h1" />
<path stroke="#b0809c" d="M8 4h1" />
<path stroke="#af7d99" d="M9 4h1M7 5h1" />
<path stroke="#af7b97" d="M10 4h1" />
<path stroke="#ae7692" d="M12 4h1" />
<path stroke="#ad738e" d="M14 4h1" />
<path stroke="#ad718b" d="M15 4h1" />
<path stroke="#ac6f89" d="M16 4h1" />
<path stroke="#ab6b85" d="M17 4h1" />
<path stroke="#a46580" d="M18 4h1" />
<path stroke="#905a77" d="M19 4h1" />
<path stroke="#babeea" d="M20 4h1" />
<path stroke="#bbc7ee" d="M0 5h1" />
<path stroke="#af7e97" d="M1 5h1" />
<path stroke="#b28faa" d="M2 5h1" />
<path stroke="#b28fab" d="M3 5h1" />
<path stroke="#e0ced9" d="M5 5h1" />
<path stroke="#ffffff" d="M6 5h1M14 5h1M5 6h3M13 6h3M6 7h3M12 7h3M7 8h3M11 8h3M8 9h5M9 10h3M8 11h5M7 12h3M11 12h2M6 13h3M12 13h3M5 14h3M13 14h3M6 15h1M14 15h1" />
<path stroke="#af7b96" d="M8 5h1" />
<path stroke="#ae7894" d="M9 5h1M8 6h1" />
<path stroke="#ad7590" d="M10 5h1" />
<path stroke="#ad728d" d="M11 5h1" />
<path stroke="#ad7089" d="M12 5h1" />
<path stroke="#ad6e88" d="M13 5h1" />
<path stroke="#dec4ce" d="M15 5h1" />
<path stroke="#ac6c85" d="M16 5h1" />
<path stroke="#aa6a84" d="M17 5h1" />
<path stroke="#a46782" d="M18 5h1" />
<path stroke="#915c7a" d="M19 5h1" />
<path stroke="#babeeb" d="M20 5h1" />
<path stroke="#bcc7ee" d="M0 6h1M0 9h1" />
<path stroke="#af7b95" d="M1 6h1" />
<path stroke="#b28aa5" d="M2 6h1" />
<path stroke="#b18ba6" d="M3 6h1" />
<path stroke="#b187a2" d="M4 6h1" />
<path stroke="#ae738d" d="M10 6h1" />
<path stroke="#ad708a" d="M11 6h1" />
<path stroke="#ac6d87" d="M12 6h1" />
<path stroke="#ac6a83" d="M16 6h1" />
<path stroke="#ab6a83" d="M17 6h1" />
<path stroke="#a56782" d="M18 6h1" />
<path stroke="#915d7a" d="M19 6h1" />
<path stroke="#babfeb" d="M20 6h1" />
<path stroke="#bcc6ee" d="M0 7h1M0 8h1" />
<path stroke="#af7991" d="M1 7h1M1 8h1" />
<path stroke="#b186a2" d="M2 7h1" />
<path stroke="#b084a0" d="M4 7h1" />
<path stroke="#ae748f" d="M9 7h1" />
<path stroke="#ae728c" d="M10 7h1" />
<path stroke="#ad6f88" d="M11 7h1" />
<path stroke="#ad6981" d="M15 7h1" />
<path stroke="#ad6a82" d="M16 7h1" />
<path stroke="#ab6a82" d="M17 7h1" />
<path stroke="#a56781" d="M18 7h1" />
<path stroke="#925d7a" d="M19 7h1" />
<path stroke="#bbc0ec" d="M20 7h1M20 8h1M20 9h1" />
<path stroke="#b0839e" d="M2 8h1" />
<path stroke="#b0829e" d="M4 8h1" />
<path stroke="#b07f9c" d="M5 8h1" />
<path stroke="#b07c98" d="M6 8h1" />
<path stroke="#ad718a" d="M10 8h1" />
<path stroke="#ad687f" d="M14 8h1" />
<path stroke="#ad677e" d="M15 8h1" />
<path stroke="#ad6880" d="M16 8h1" />
<path stroke="#ac6a81" d="M17 8h1" />
<path stroke="#a66781" d="M18 8h1" />
<path stroke="#935d7a" d="M19 8h1" />
<path stroke="#ae758c" d="M1 9h1" />
<path stroke="#b0809b" d="M2 9h1" />
<path stroke="#b07e9b" d="M5 9h1" />
<path stroke="#af7c97" d="M6 9h1M6 10h1" />
<path stroke="#ae7a95" d="M7 9h1" />
<path stroke="#ae6b81" d="M13 9h1" />
<path stroke="#ae697f" d="M14 9h1" />
<path stroke="#ad687e" d="M15 9h2" />
<path stroke="#ac697f" d="M17 9h1" />
<path stroke="#a6667f" d="M18 9h1" />
<path stroke="#935c79" d="M19 9h1" />
<path stroke="#bcc7ef" d="M0 10h1" />
<path stroke="#ae738a" d="M1 10h1" />
<path stroke="#b07d97" d="M2 10h1M6 11h1" />
<path stroke="#b07f9a" d="M3 10h1M4 11h1" />
<path stroke="#b07f9b" d="M4 10h1" />
<path stroke="#b07e9a" d="M5 10h1" />
<path stroke="#af7a94" d="M7 10h1" />
<path stroke="#ae7891" d="M8 10h1" />
<path stroke="#af6f84" d="M12 10h1" />
<path stroke="#af6d81" d="M13 10h1" />
<path stroke="#af6a7f" d="M14 10h1" />
<path stroke="#af697d" d="M15 10h2" />
<path stroke="#ad697e" d="M17 10h1" />
<path stroke="#a7667e" d="M18 10h1" />
<path stroke="#935c78" d="M19 10h1" />
<path stroke="#bbc0ed" d="M20 10h1" />
<path stroke="#bdc8ef" d="M0 11h1" />
<path stroke="#ae7188" d="M1 11h1" />
<path stroke="#af7b94" d="M2 11h1" />
<path stroke="#b07f99" d="M3 11h1" />
<path stroke="#b07e99" d="M5 11h1" />
<path stroke="#af7c95" d="M7 11h1" />
<path stroke="#b06e82" d="M13 11h1" />
<path stroke="#b06c7f" d="M14 11h1" />
<path stroke="#af6a7c" d="M15 11h1" />
<path stroke="#af697c" d="M16 11h1" />
<path stroke="#ae687c" d="M17 11h1" />
<path stroke="#a7657c" d="M18 11h1" />
<path stroke="#945b77" d="M19 11h1" />
<path stroke="#bcc1ee" d="M20 11h1" />
<path stroke="#bdc9f0" d="M0 12h1" />
<path stroke="#ae7086" d="M1 12h1" />
<path stroke="#af7a92" d="M2 12h1" />
<path stroke="#b07d96" d="M3 12h1" />
<path stroke="#b17f98" d="M4 12h1M5 13h1" />
<path stroke="#b17e99" d="M5 12h1" />
<path stroke="#b07e98" d="M6 12h1" />
<path stroke="#b0788d" d="M10 12h1" />
<path stroke="#faf6f7" d="M13 12h1" />
<path stroke="#b16e7f" d="M14 12h1" />
<path stroke="#b16c7d" d="M15 12h1" />
<path stroke="#b06b7b" d="M16 12h1" />
<path stroke="#af697b" d="M17 12h1" />
<path stroke="#a8647a" d="M18 12h1" />
<path stroke="#955b76" d="M19 12h1" />
<path stroke="#bcc3ee" d="M20 12h1" />
<path stroke="#becaf1" d="M0 13h1" />
<path stroke="#ae6f83" d="M1 13h1" />
<path stroke="#af798f" d="M2 13h1" />
<path stroke="#b07c94" d="M3 13h1" />
<path stroke="#b17e97" d="M4 13h1" />
<path stroke="#b17b91" d="M9 13h1" />
<path stroke="#b1798e" d="M10 13h1" />
<path stroke="#b1768a" d="M11 13h1" />
<path stroke="#b26d7c" d="M15 13h1" />
<path stroke="#b16c7a" d="M16 13h1" />
<path stroke="#af6879" d="M17 13h1" />
<path stroke="#a96477" d="M18 13h1" />
<path stroke="#965b74" d="M19 13h1" />
<path stroke="#bcc4ef" d="M20 13h1" />
<path stroke="#becbf1" d="M0 14h1" />
<path stroke="#ae6d80" d="M1 14h1" />
<path stroke="#af778c" d="M2 14h1" />
<path stroke="#b07b92" d="M3 14h1" />
<path stroke="#b17d95" d="M4 14h1" />
<path stroke="#b17c93" d="M8 14h1" />
<path stroke="#b27c91" d="M9 14h1" />
<path stroke="#b17a8e" d="M10 14h1" />
<path stroke="#b2788b" d="M11 14h1" />
<path stroke="#b37686" d="M12 14h1" />
<path stroke="#b26b79" d="M16 14h1" />
<path stroke="#b16877" d="M17 14h1" />
<path stroke="#a96376" d="M18 14h1" />
<path stroke="#965b73" d="M19 14h1" />
<path stroke="#bdc6f0" d="M20 14h1" />
<path stroke="#beccf2" d="M0 15h1" />
<path stroke="#ae6c7e" d="M1 15h1" />
<path stroke="#af7589" d="M2 15h1" />
<path stroke="#b07a8e" d="M3 15h1M4 16h1" />
<path stroke="#b17c92" d="M4 15h1" />
<path stroke="#e0cbd4" d="M5 15h1" />
<path stroke="#b27d93" d="M7 15h1" />
<path stroke="#b17d92" d="M8 15h1" />
<path stroke="#b17c90" d="M9 15h1M5 16h2" />
<path stroke="#b27a8d" d="M10 15h1" />
<path stroke="#b2798a" d="M11 15h1" />
<path stroke="#b37786" d="M12 15h1" />
<path stroke="#b37583" d="M13 15h1" />
<path stroke="#e1c5ca" d="M15 15h1" />
<path stroke="#b36b78" d="M16 15h1" />
<path stroke="#b16775" d="M17 15h1" />
<path stroke="#aa6273" d="M18 15h1" />
<path stroke="#965a72" d="M19 15h1" />
<path stroke="#bec6f0" d="M20 15h1" />
<path stroke="#bfcef2" d="M0 16h1" />
<path stroke="#ae6b7c" d="M1 16h1" />
<path stroke="#af7385" d="M2 16h1" />
<path stroke="#af778a" d="M3 16h1" />
<path stroke="#b17b8f" d="M7 16h1" />
<path stroke="#b17b8e" d="M8 16h1" />
<path stroke="#b17a8d" d="M9 16h1" />
<path stroke="#b2798b" d="M10 16h1" />
<path stroke="#b27888" d="M11 16h1" />
<path stroke="#b37684" d="M12 16h1" />
<path stroke="#b37481" d="M13 16h1" />
<path stroke="#b3727e" d="M14 16h1" />
<path stroke="#b36e7a" d="M15 16h1" />
<path stroke="#b36b77" d="M16 16h1" />
<path stroke="#b16774" d="M17 16h1" />
<path stroke="#aa6272" d="M18 16h1" />
<path stroke="#965b72" d="M19 16h1" />
<path stroke="#bec7f1" d="M20 16h1" />
<path stroke="#bfcff3" d="M0 17h1M2 20h6" />
<path stroke="#ac6a7a" d="M1 17h1" />
<path stroke="#ad7080" d="M2 17h1" />
<path stroke="#ae7486" d="M3 17h1" />
<path stroke="#ae778a" d="M4 17h1" />
<path stroke="#af788c" d="M5 17h1" />
<path stroke="#af798c" d="M6 17h1" />
<path stroke="#af788b" d="M7 17h2" />
<path stroke="#af7789" d="M9 17h1" />
<path stroke="#b07687" d="M10 17h1" />
<path stroke="#b17585" d="M11 17h1" />
<path stroke="#b17482" d="M12 17h1" />
<path stroke="#b2717f" d="M13 17h1" />
<path stroke="#b26f7c" d="M14 17h1" />
<path stroke="#b26c79" d="M15 17h1" />
<path stroke="#b16976" d="M16 17h1" />
<path stroke="#af6673" d="M17 17h1" />
<path stroke="#a76172" d="M18 17h1" />
<path stroke="#945b72" d="M19 17h1" />
<path stroke="#bec9f2" d="M20 17h1" />
<path stroke="#b8caf0" d="M0 18h1" />
<path stroke="#a67487" d="M1 18h1" />
<path stroke="#a66b7c" d="M2 18h1" />
<path stroke="#a66e80" d="M3 18h1" />
<path stroke="#a77183" d="M4 18h1" />
<path stroke="#a77285" d="M5 18h1" />
<path stroke="#a77286" d="M6 18h1" />
<path stroke="#a77185" d="M7 18h1" />
<path stroke="#a87184" d="M8 18h1" />
<path stroke="#a87083" d="M9 18h1" />
<path stroke="#a86f81" d="M10 18h1" />
<path stroke="#aa6f80" d="M11 18h1" />
<path stroke="#aa6e7d" d="M12 18h1" />
<path stroke="#aa6c7c" d="M13 18h1" />
<path stroke="#aa6a79" d="M14 18h1" />
<path stroke="#aa6877" d="M15 18h1" />
<path stroke="#aa6674" d="M16 18h1" />
<path stroke="#a86373" d="M17 18h1" />
<path stroke="#a06072" d="M18 18h1" />
<path stroke="#956882" d="M19 18h1" />
<path stroke="#becaf2" d="M20 18h1" />
<path stroke="#94b0ea" d="M0 19h1" />
<path stroke="#b7bbdb" d="M1 19h1" />
<path stroke="#9a7287" d="M2 19h1" />
<path stroke="#936579" d="M3 19h1" />
<path stroke="#96687b" d="M4 19h1" />
<path stroke="#95677c" d="M5 19h1" />
<path stroke="#94687d" d="M6 19h1" />
<path stroke="#94677c" d="M7 19h1" />
<path stroke="#96677c" d="M8 19h2" />
<path stroke="#97667b" d="M10 19h1" />
<path stroke="#986579" d="M11 19h1" />
<path stroke="#986477" d="M12 19h1" />
<path stroke="#996376" d="M13 19h1" />
<path stroke="#986275" d="M14 19h1" />
<path stroke="#986074" d="M15 19h1" />
<path stroke="#996073" d="M16 19h1" />
<path stroke="#965e72" d="M17 19h1" />
<path stroke="#956a82" d="M18 19h1" />
<path stroke="#b4b5da" d="M19 19h1" />
<path stroke="#91a6e9" d="M20 19h1" />
<path stroke="#7fa0e6" d="M0 20h1" />
<path stroke="#93aeea" d="M1 20h1" />
<path stroke="#bfcef3" d="M8 20h2" />
<path stroke="#bfcdf3" d="M10 20h1" />
<path stroke="#bfcdf2" d="M11 20h3" />
<path stroke="#bfccf2" d="M14 20h4" />
<path stroke="#b7c4ef" d="M18 20h1" />
<path stroke="#91a5e8" d="M19 20h1" />
<path stroke="#7d93e4" d="M20 20h1" />
</svg>