<svg xmlns="http://www.w3.org/2000/svg" viewBox="0 -0.5 21 21" shape-rendering="crispEdges">
<path stroke="#7999de" d="M0 0h1" />
<path stroke="#8ea9e4" d="M1 0h1" />
<path stroke="#b5c6ee" d="M2 0h1" />
<path stroke="#bdccf0" d="M3 0h3" />
<path stroke="#bdcbef" d="M6 0h5" />
<path stroke="#bdcaef" d="M11 0h1" />
<path stroke="#bdcaee" d="M12 0h2" />
<path stroke="#bcc9ee" d="M14 0h1" />
<path stroke="#bcc8ee" d="M15 0h1" />
<path stroke="#bcc8ed" d="M16 0h1" />
<path stroke="#bcc7ed" d="M17 0h2" />
<path stroke="#8ea3e1" d="M19 0h1" />
<path stroke="#7a95de" d="M20 0h1" />
<path stroke="#8da6e3" d="M0 1h1" />
<path stroke="#aabded" d="M1 1h1" />
<path stroke="#7597eb" d="M2 1h1" />
<path stroke="#6c8fea" d="M3 1h1" />
<path stroke="#668be9" d="M4 1h1" />
<path stroke="#6287e9" d="M5 1h1" />
<path stroke="#6085e8" d="M6 1h1" />
<path stroke="#5d82e8" d="M7 1h1" />
<path stroke="#5d83e8" d="M8 1h1" />
<path stroke="#5a80e8" d="M9 1h2" />
<path stroke="#597fe8" d="M11 1h2" />
<path stroke="#557ce7" d="M13 1h1" />
<path stroke="#547be7" d="M14 1h1" />
<path stroke="#537ae7" d="M15 1h1" />
<path stroke="#4e76e6" d="M16 1h1M17 9h1" />
<path stroke="#4a71e3" d="M17 1h1" />
<path stroke="#5475dc" d="M18 1h1" />
<path stroke="#a4b0e4" d="M19 1h1" />
<path stroke="#8c9fe0" d="M20 1h1" />
<path stroke="#bbc8ee" d="M0 2h1" />
<path stroke="#7696ea" d="M1 2h1" />
<path stroke="#849fea" d="M2 2h1" />
<path stroke="#86a1ea" d="M3 2h1" />
<path stroke="#7e9be9" d="M4 2h1" />
<path stroke="#7695e9" d="M5 2h1" />
<path stroke="#7292e9" d="M6 2h1" />
<path stroke="#6f8fe9" d="M7 2h1" />
<path stroke="#6e8de8" d="M8 2h1" />
<path stroke="#6c8ce8" d="M9 2h1" />
<path stroke="#6a8be8" d="M10 2h1" />
<path stroke="#6a8ae8" d="M11 2h1" />
<path stroke="#6788e8" d="M12 2h1" />
<path stroke="#6686e8" d="M13 2h1" />
<path stroke="#6384e7" d="M14 2h1" />
<path stroke="#5f81e6" d="M15 2h1" />
<path stroke="#5a7ce6" d="M16 2h1" />
<path stroke="#5376e4" d="M17 2h1" />
<path stroke="#4b6edc" d="M18 2h1" />
<path stroke="#526dcd" d="M19 2h1" />
<path stroke="#b1b8e8" d="M20 2h1" />
<path stroke="#bbc7ed" d="M0 3h1M0 4h1" />
<path stroke="#6e8fe9" d="M1 3h1" />
<path stroke="#87a1ea" d="M2 3h1" />
<path stroke="#88a2ea" d="M3 3h1" />
<path stroke="#809bea" d="M4 3h1M2 4h1" />
<path stroke="#7996e9" d="M5 3h1" />
<path stroke="#7493e9" d="M6 3h1" />
<path stroke="#7290e9" d="M7 3h1" />
<path stroke="#6f8ee9" d="M8 3h1" />
<path stroke="#6d8ce8" d="M9 3h1" />
<path stroke="#6c8be8" d="M10 3h1" />
<path stroke="#6b8ae8" d="M11 3h1" />
<path stroke="#6988e8" d="M12 3h1" />
<path stroke="#6786e8" d="M13 3h1" />
<path stroke="#6483e7" d="M14 3h1" />
<path stroke="#6180e7" d="M15 3h1" />
<path stroke="#5c7de6" d="M16 3h1" />
<path stroke="#5677e4" d="M17 3h1" />
<path stroke="#4e6fdc" d="M18 3h1" />
<path stroke="#4461c7" d="M19 3h1" />
<path stroke="#b9bdea" d="M20 3h1" />
<path stroke="#6789e9" d="M1 4h1" />
<path stroke="#829cea" d="M3 4h1" />
<path stroke="#7b97e9" d="M4 4h1" />
<path stroke="#7492e9" d="M5 4h1M4 5h1" />
<path stroke="#708fe9" d="M6 4h1" />
<path stroke="#6d8ce9" d="M7 4h1" />
<path stroke="#6a8ae9" d="M8 4h1" />
<path stroke="#6887e9" d="M9 4h1" />
<path stroke="#6584e8" d="M10 4h1" />
<path stroke="#6382e8" d="M11 4h1" />
<path stroke="#6080e7" d="M12 4h2" />
<path stroke="#5d7de7" d="M14 4h1" />
<path stroke="#5a7be7" d="M15 4h1" />
<path stroke="#577ae6" d="M16 4h1" />
<path stroke="#5476e5" d="M17 4h1" />
<path stroke="#4f70dd" d="M18 4h1" />
<path stroke="#4663c8" d="M19 4h1" />
<path stroke="#babeea" d="M20 4h1" />
<path stroke="#bbc7ee" d="M0 5h1" />
<path stroke="#6487e9" d="M1 5h1" />
<path stroke="#7896ea" d="M2 5h1" />
<path stroke="#7a96ea" d="M3 5h1" />
<path stroke="#ffffff" d="M5 5h11M5 6h11M5 7h11M5 8h1M15 8h1M5 9h1M15 9h1M5 10h1M15 10h1M5 11h1M15 11h1M5 12h1M15 12h1M5 13h1M15 13h1M5 14h1M15 14h1M5 15h11" />
<path stroke="#5377e7" d="M16 5h1" />
<path stroke="#5275e5" d="M17 5h1" />
<path stroke="#5071de" d="M18 5h1" />
<path stroke="#4965c9" d="M19 5h1" />
<path stroke="#babeeb" d="M20 5h1" />
<path stroke="#bcc7ee" d="M0 6h1M0 9h1" />
<path stroke="#6285ea" d="M1 6h1M2 11h1" />
<path stroke="#7392eb" d="M2 6h1" />
<path stroke="#7393ea" d="M3 6h1" />
<path stroke="#708fea" d="M4 6h1" />
<path stroke="#5176e8" d="M16 6h1" />
<path stroke="#5275e6" d="M17 6h1" />
<path stroke="#5172df" d="M18 6h1" />
<path stroke="#4966ca" d="M19 6h1" />
<path stroke="#babfeb" d="M20 6h1" />
<path stroke="#bcc6ee" d="M0 7h1M0 8h1" />
<path stroke="#5f83e9" d="M1 7h1M1 8h1" />
<path stroke="#708feb" d="M2 7h1" />
<path stroke="#7190ea" d="M3 7h1" />
<path stroke="#6e8dea" d="M4 7h1" />
<path stroke="#5076e8" d="M16 7h1" />
<path stroke="#5176e6" d="M17 7h1" />
<path stroke="#5072df" d="M18 7h1" />
<path stroke="#4966cb" d="M19 7h1M19 8h1" />
<path stroke="#bbc0ec" d="M20 7h1M20 8h1M20 9h1" />
<path stroke="#6c8cea" d="M2 8h1" />
<path stroke="#6d8deb" d="M3 8h1" />
<path stroke="#6c8bea" d="M4 8h1" />
<path stroke="#6686ea" d="M6 8h1" />
<path stroke="#6282e9" d="M7 8h1" />
<path stroke="#5f80e9" d="M8 8h1M8 9h1" />
<path stroke="#5c7de9" d="M9 8h1" />
<path stroke="#587be8" d="M10 8h1" />
<path stroke="#557ae8" d="M11 8h1" />
<path stroke="#5278e8" d="M12 8h1" />
<path stroke="#4f76e8" d="M13 8h1" />
<path stroke="#4d75e8" d="M14 8h1" />
<path stroke="#4e75e8" d="M16 8h1" />
<path stroke="#5076e6" d="M17 8h1" />
<path stroke="#5073df" d="M18 8h1" />
<path stroke="#5a7fe9" d="M1 9h1" />
<path stroke="#6889ea" d="M2 9h1M4 10h1" />
<path stroke="#6a8bea" d="M3 9h1" />
<path stroke="#6a8aea" d="M4 9h1" />
<path stroke="#6585e9" d="M6 9h1" />
<path stroke="#6283e9" d="M7 9h1" />
<path stroke="#5c7fe9" d="M9 9h1" />
<path stroke="#587de9" d="M10 9h1" />
<path stroke="#557ce9" d="M11 9h1" />
<path stroke="#517ae9" d="M12 9h1" />
<path stroke="#4f78e9" d="M13 9h1" />
<path stroke="#4d77e9" d="M14 9h1" />
<path stroke="#4c76e8" d="M16 9h1" />
<path stroke="#4e72e0" d="M18 9h1" />
<path stroke="#4866cc" d="M19 9h1" />
<path stroke="#bcc7ef" d="M0 10h1" />
<path stroke="#577de9" d="M1 10h1" />
<path stroke="#6487ea" d="M2 10h1" />
<path stroke="#6789ea" d="M3 10h1" />
<path stroke="#6586e9" d="M6 10h1" />
<path stroke="#6284e9" d="M7 10h1" />
<path stroke="#5f82e9" d="M8 10h1" />
<path stroke="#5c81e9" d="M9 10h1" />
<path stroke="#5980e9" d="M10 10h1" />
<path stroke="#567ee9" d="M11 10h1" />
<path stroke="#527dea" d="M12 10h1" />
<path stroke="#4f7bea" d="M13 10h1" />
<path stroke="#4d79e9" d="M14 10h1" />
<path stroke="#4b77e9" d="M16 10h1" />
<path stroke="#4c77e8" d="M17 10h1" />
<path stroke="#4c73e1" d="M18 10h1" />
<path stroke="#4666cc" d="M19 10h1" />
<path stroke="#bbc0ed" d="M20 10h1" />
<path stroke="#bdc8ef" d="M0 11h1" />
<path stroke="#557dea" d="M1 11h1" />
<path stroke="#6688ea" d="M3 11h1" />
<path stroke="#6788eb" d="M4 11h1" />
<path stroke="#6587ea" d="M6 11h1" />
<path stroke="#6286ea" d="M7 11h1" />
<path stroke="#6084ea" d="M8 11h1" />
<path stroke="#5d83ea" d="M9 11h1" />
<path stroke="#5a82ea" d="M10 11h1" />
<path stroke="#5680ea" d="M11 11h1" />
<path stroke="#537fea" d="M12 11h1" />
<path stroke="#4f7deb" d="M13 11h1" />
<path stroke="#4c7cea" d="M14 11h1" />
<path stroke="#4a79ea" d="M16 11h1" />
<path stroke="#4a77e9" d="M17 11h1" />
<path stroke="#4a73e2" d="M18 11h1" />
<path stroke="#4566ce" d="M19 11h1" />
<path stroke="#bcc1ee" d="M20 11h1" />
<path stroke="#bdc9f0" d="M0 12h1" />
<path stroke="#527ceb" d="M1 12h1" />
<path stroke="#5f84eb" d="M2 12h1" />
<path stroke="#6487eb" d="M3 12h1" />
<path stroke="#6688eb" d="M4 12h1" />
<path stroke="#6588eb" d="M6 12h1" />
<path stroke="#6387eb" d="M7 12h1" />
<path stroke="#6086ea" d="M8 12h1" />
<path stroke="#5e85ea" d="M9 12h1" />
<path stroke="#5b84ea" d="M10 12h1" />
<path stroke="#5783ea" d="M11 12h1" />
<path stroke="#5381eb" d="M12 12h1" />
<path stroke="#4f80eb" d="M13 12h1" />
<path stroke="#4d7eeb" d="M14 12h1" />
<path stroke="#487beb" d="M16 12h1" />
<path stroke="#4879e9" d="M17 12h1" />
<path stroke="#4773e3" d="M18 12h1" />
<path stroke="#4366cf" d="M19 12h1" />
<path stroke="#bcc3ee" d="M20 12h1" />
<path stroke="#becaf1" d="M0 13h1" />
<path stroke="#507beb" d="M1 13h1" />
<path stroke="#5c83eb" d="M2 13h1" />
<path stroke="#6186eb" d="M3 13h1" />
<path stroke="#6488ec" d="M4 13h1" />
<path stroke="#6489eb" d="M6 13h1" />
<path stroke="#6388eb" d="M7 13h1" />
<path stroke="#6187eb" d="M8 13h1" />
<path stroke="#5e86eb" d="M9 13h1" />
<path stroke="#5b86eb" d="M10 13h1" />
<path stroke="#5785eb" d="M11 13h1" />
<path stroke="#5383eb" d="M12 13h1" />
<path stroke="#5081ec" d="M13 13h1" />
<path stroke="#4d80eb" d="M14 13h1" />
<path stroke="#487deb" d="M16 13h1" />
<path stroke="#4679ea" d="M17 13h1" />
<path stroke="#4573e4" d="M18 13h1" />
<path stroke="#4266cf" d="M19 13h1" />
<path stroke="#bcc4ef" d="M20 13h1" />
<path stroke="#becbf1" d="M0 14h1" />
<path stroke="#4d79eb" d="M1 14h1" />
<path stroke="#5982ec" d="M2 14h1" />
<path stroke="#5f85ec" d="M3 14h1" />
<path stroke="#6287ec" d="M4 14h1" />
<path stroke="#6389ed" d="M6 14h1" />
<path stroke="#6288ec" d="M7 14h1" />
<path stroke="#6088ec" d="M8 14h1" />
<path stroke="#5e88ec" d="M9 14h1" />
<path stroke="#5b87ec" d="M10 14h1" />
<path stroke="#5887ec" d="M11 14h1" />
<path stroke="#5485ec" d="M12 14h1" />
<path stroke="#5084ed" d="M13 14h1" />
<path stroke="#4c82ed" d="M14 14h1" />
<path stroke="#467dec" d="M16 14h1" />
<path stroke="#4479eb" d="M17 14h1" />
<path stroke="#4372e4" d="M18 14h1" />
<path stroke="#4066d0" d="M19 14h1" />
<path stroke="#bdc6f0" d="M20 14h1" />
<path stroke="#beccf2" d="M0 15h1" />
<path stroke="#4a79ec" d="M1 15h1" />
<path stroke="#5580ec" d="M2 15h1" />
<path stroke="#5b84ec" d="M3 15h1" />
<path stroke="#5f87ec" d="M4 15h1" />
<path stroke="#457ded" d="M16 15h1M15 17h1" />
<path stroke="#4279eb" d="M17 15h1" />
<path stroke="#4072e5" d="M18 15h1" />
<path stroke="#3f66d0" d="M19 15h1M19 16h1" />
<path stroke="#bec6f0" d="M20 15h1" />
<path stroke="#bfcef2" d="M0 16h1" />
<path stroke="#4978ec" d="M1 16h1" />
<path stroke="#517eed" d="M2 16h1" />
<path stroke="#5783ec" d="M3 16h1M7 17h2" />
<path stroke="#5b85ec" d="M4 16h1" />
<path stroke="#5d87ed" d="M5 16h1" />
<path stroke="#5d86ed" d="M6 16h1" />
<path stroke="#5c87ed" d="M7 16h1" />
<path stroke="#5b87ed" d="M8 16h1" />
<path stroke="#5a87ed" d="M9 16h1" />
<path stroke="#5787ed" d="M10 16h1" />
<path stroke="#5487ee" d="M11 16h1" />
<path stroke="#5186ee" d="M12 16h1" />
<path stroke="#4e85ee" d="M13 16h1" />
<path stroke="#4b83ee" d="M14 16h1" />
<path stroke="#4780ee" d="M15 16h1" />
<path stroke="#447ded" d="M16 16h1" />
<path stroke="#4178ec" d="M17 16h1" />
<path stroke="#3f72e5" d="M18 16h1" />
<path stroke="#bec7f1" d="M20 16h1" />
<path stroke="#bfcff3" d="M0 17h1M2 20h6" />
<path stroke="#4676ea" d="M1 17h1" />
<path stroke="#4d7cea" d="M2 17h1" />
<path stroke="#5380eb" d="M3 17h1" />
<path stroke="#5682eb" d="M4 17h1" />
<path stroke="#5883eb" d="M5 17h1" />
<path stroke="#5983eb" d="M6 17h1" />
<path stroke="#5584ec" d="M9 17h1" />
<path stroke="#5484ec" d="M10 17h1" />
<path stroke="#5184ec" d="M11 17h1" />
<path stroke="#4e83ec" d="M12 17h1" />
<path stroke="#4b82ed" d="M13 17h1" />
<path stroke="#4880ed" d="M14 17h1" />
<path stroke="#427aec" d="M16 17h1" />
<path stroke="#3f77eb" d="M17 17h1" />
<path stroke="#3e70e3" d="M18 17h1" />
<path stroke="#3f66cf" d="M19 17h1" />
<path stroke="#bec9f2" d="M20 17h1" />
<path stroke="#b8cbf1" d="M0 18h1" />
<path stroke="#537ee3" d="M1 18h1" />
<path stroke="#4977e2" d="M2 18h1" />
<path stroke="#4d7ae2" d="M3 18h1" />
<path stroke="#507ce4" d="M4 18h1" />
<path stroke="#527de3" d="M5 18h2" />
<path stroke="#517ce3" d="M7 18h1" />
<path stroke="#517de3" d="M8 18h1" />
<path stroke="#4f7ce3" d="M9 18h1" />
<path stroke="#4e7ce3" d="M10 18h1" />
<path stroke="#4c7ce5" d="M11 18h1" />
<path stroke="#4a7ce5" d="M12 18h1" />
<path stroke="#487be6" d="M13 18h1" />
<path stroke="#4679e5" d="M14 18h1" />
<path stroke="#4378e6" d="M15 18h1" />
<path stroke="#4176e6" d="M16 18h1" />
<path stroke="#3f72e3" d="M17 18h1" />
<path stroke="#3f6ddc" d="M18 18h1" />
<path stroke="#4e71ce" d="M19 18h1" />
<path stroke="#becaf2" d="M20 18h1" />
<path stroke="#94b2eb" d="M0 19h1" />
<path stroke="#a8bdec" d="M1 19h1" />
<path stroke="#537bd5" d="M2 19h1" />
<path stroke="#466fce" d="M3 19h1" />
<path stroke="#4872d1" d="M4 19h1" />
<path stroke="#4871d0" d="M5 19h1" />
<path stroke="#4971cf" d="M6 19h1" />
<path stroke="#4871cf" d="M7 19h1" />
<path stroke="#4971d1" d="M8 19h2" />
<path stroke="#4770d2" d="M10 19h1" />
<path stroke="#4570d2" d="M11 19h1" />
<path stroke="#4470d3" d="M12 19h1" />
<path stroke="#436fd4" d="M13 19h1" />
<path stroke="#426dd2" d="M14 19h1" />
<path stroke="#406cd2" d="M15 19h1" />
<path stroke="#3f6cd4" d="M16 19h1" />
<path stroke="#3f69d1" d="M17 19h1" />
<path stroke="#4e73cf" d="M18 19h1" />
<path stroke="#a7b7e9" d="M19 19h1" />
<path stroke="#92abe9" d="M20 19h1M19 20h1" />
<path stroke="#7fa4e6" d="M0 20h1" />
<path stroke="#93b0ea" d="M1 20h1" />
<path stroke="#bfcef3" d="M8 20h2" />
<path stroke="#bfcdf3" d="M10 20h1" />
<path stroke="#bfcdf2" d="M11 20h3" />
<path stroke="#bfccf2" d="M14 20h4" />
<path stroke="#b7c5ef" d="M18 20h1" />
<path stroke="#7fa0e5" d="M20 20h1" />
</svg>