<svg xmlns="http://www.w3.org/2000/svg" viewBox="0 -0.5 17 18" shape-rendering="crispEdges">
<path stroke="#ffffff" d="M0 0h17M0 1h1M16 1h1M0 2h1M16 2h1M0 3h1M16 3h1M0 4h1M16 4h1M0 5h1M16 5h1M0 6h1M16 6h1M0 7h1M16 7h1M0 8h1M16 8h1M0 9h1M16 9h1M0 10h1M16 10h1M0 11h1M16 11h1M0 12h1M16 12h1M0 13h1M16 13h1M0 14h1M16 14h1M0 15h1M16 15h1M0 16h1M16 16h1M0 17h17" />
<path stroke="#e6eefc" d="M1 1h1" />
<path stroke="#d0defc" d="M2 1h1M1 2h1M7 2h1" />
<path stroke="#cad8f9" d="M3 1h1M1 3h1" />
<path stroke="#c4d2f7" d="M4 1h1" />
<path stroke="#c0d0f7" d="M5 1h2" />
<path stroke="#bccef9" d="M7 1h1M14 2h1M14 3h1M4 15h3M11 15h2" />
<path stroke="#baccf4" d="M8 1h1M15 3h1" />
<path stroke="#b8cbf6" d="M9 1h1M1 4h1" />
<path stroke="#b7caf5" d="M10 1h2M1 5h1M1 6h1M1 7h1M1 8h1M1 10h1M1 11h1M1 12h1" />
<path stroke="#b5c8f7" d="M12 1h1" />
<path stroke="#b3c8f5" d="M13 1h1M8 16h2" />
<path stroke="#b0c5f3" d="M14 1h1" />
<path stroke="#dce5f9" d="M15 1h1" />
<path stroke="#e1eafe" d="M2 2h1" />
<path stroke="#dae6fe" d="M3 2h1M2 3h1" />
<path stroke="#d4e1fc" d="M4 2h1" />
<path stroke="#d1dffd" d="M5 2h2M4 3h1" />
<path stroke="#cedcfd" d="M8 2h1M5 3h2" />
<path stroke="#cad9fd" d="M9 2h1M7 3h1M3 4h2" />
<path stroke="#c8d7fb" d="M10 2h2" />
<path stroke="#c5d6fc" d="M12 2h1" />
<path stroke="#c2d3fb" d="M13 2h1M5 5h1M5 7h2M5 8h2M12 11h1" />
<path stroke="#b9c9f3" d="M15 2h1M4 16h3M11 16h2" />
<path stroke="#d7e3fd" d="M3 3h1" />
<path stroke="#4d6185" d="M8 3h1M7 4h3M6 5h5M5 6h3M9 6h3M5 11h3M9 11h3M6 12h5M7 13h3M8 14h1" />
<path stroke="#c5d5fc" d="M9 3h1" />
<path stroke="#c4d3fc" d="M10 3h2" />
<path stroke="#c1d2fc" d="M12 3h1" />
<path stroke="#bfd1fc" d="M13 3h1" />
<path stroke="#c9d8fc" d="M2 4h1M2 9h1M5 9h1M12 9h1M2 13h2" />
<path stroke="#c9d7fc" d="M5 4h2" />
<path stroke="#b6cefb" d="M10 4h3M11 5h3M12 6h2M10 7h4M10 8h4M9 9h2M9 10h2M13 10h1M13 11h1M13 12h1M10 13h1" />
<path stroke="#b8cdfc" d="M13 4h1" />
<path stroke="#b9cdfb" d="M14 4h1M14 9h1M14 13h1M2 14h1" />
<path stroke="#bacbf4" d="M15 4h1M15 9h1M15 13h1" />
<path stroke="#c8d6fb" d="M2 5h2M2 6h2M2 7h2M2 8h2M2 10h2M2 11h2M2 12h2" />
<path stroke="#c7d6fb" d="M4 5h1M4 6h1M4 7h1M4 8h1M4 10h1M11 10h1M4 11h1M4 12h1M11 12h1" />
<path stroke="#b6cdfb" d="M14 5h1M14 6h1M14 7h1M14 8h1M14 10h1M14 11h1M14 12h1M8 15h1" />
<path stroke="#b9cbf3" d="M15 5h1M15 6h1M15 7h1M15 8h1M15 10h1M15 11h1M15 12h1" />
<path stroke="#c0d2fb" d="M8 6h1M8 7h1M8 8h1M7 9h1M7 10h1M4 14h1M11 14h1" />
<path stroke="#c1d3fb" d="M7 7h1M7 8h1M6 10h1" />
<path stroke="#b7cffb" d="M9 7h1M9 8h1M8 9h1M8 10h1M8 11h1" />
<path stroke="#b8cbf7" d="M1 9h1M1 13h1M2 15h1" />
<path stroke="#cad8fd" d="M3 9h2M11 9h1M4 13h1M11 13h1" />
<path stroke="#c2d4fb" d="M6 9h1M6 13h1" />
<path stroke="#b7cdfc" d="M13 9h1M13 13h1" />
<path stroke="#c3d4fb" d="M5 10h1M12 10h1M5 12h1M12 12h1" />
<path stroke="#c7d6fc" d="M5 13h1M12 13h1" />
<path stroke="#adc3f6" d="M1 14h1" />
<path stroke="#bed0fc" d="M3 14h1M6 14h1" />
<path stroke="#c0d1fc" d="M5 14h1M12 14h1" />
<path stroke="#bcd3fb" d="M7 14h1" />
<path stroke="#b4d1fb" d="M9 14h1" />
<path stroke="#b1cefb" d="M10 14h1" />
<path stroke="#b1cbfa" d="M13 14h1M10 15h1" />
<path stroke="#aec9f9" d="M14 14h1M13 15h1" />
<path stroke="#b1c5f3" d="M15 14h1" />
<path stroke="#abc1f4" d="M1 15h1" />
<path stroke="#bacefa" d="M3 15h1M7 15h1" />
<path stroke="#b5cdfa" d="M9 15h1" />
<path stroke="#b0c8f7" d="M14 15h1" />
<path stroke="#b0c5f2" d="M15 15h1M14 16h1" />
<path stroke="#dbe3f8" d="M1 16h1" />
<path stroke="#b7c6f1" d="M2 16h1" />
<path stroke="#b8c9f2" d="M3 16h1M7 16h1" />
<path stroke="#b2c8f4" d="M10 16h1" />
<path stroke="#b1c7f3" d="M13 16h1" />
<path stroke="#d9e3f6" d="M15 16h1" />
</svg>