<svg xmlns="http://www.w3.org/2000/svg" viewBox="0 -0.5 17 18" shape-rendering="crispEdges">
<path stroke="#ffffff" d="M0 0h17M0 1h1M16 1h1M0 2h1M16 2h1M0 3h1M16 3h1M0 4h1M16 4h1M0 5h1M16 5h1M0 6h1M16 6h1M0 7h1M16 7h1M0 8h1M16 8h1M0 9h1M16 9h1M0 10h1M16 10h1M0 11h1M16 11h1M0 12h1M16 12h1M0 13h1M16 13h1M0 14h1M16 14h1M0 15h1M16 15h1M0 16h1M16 16h1M0 17h17" />
<path stroke="#f7f7f4" d="M1 1h1M2 2h1" />
<path stroke="#f1f1eb" d="M2 1h1M1 2h1M9 2h1M7 3h1M3 4h4M3 5h3M3 6h2M3 7h4M3 9h3M11 9h2M1 16h1M15 16h1" />
<path stroke="#eeeee7" d="M3 1h1M13 2h1M1 3h1M12 3h1" />
<path stroke="#ecece5" d="M4 1h1M8 11h1M7 14h1" />
<path stroke="#ebebe3" d="M5 1h2M10 4h5M11 5h4M12 6h3M9 7h6M9 8h5M8 9h3M13 9h2M8 10h3M13 10h1M13 11h1M13 12h1M10 13h1M13 13h1M9 14h1M3 15h1M6 15h2" />
<path stroke="#eaeae2" d="M7 1h1M14 8h1M14 10h1M14 11h1M14 12h1M14 13h1M10 14h1M2 15h1M8 15h1" />
<path stroke="#e8e8df" d="M8 1h2M1 4h1M1 5h1M1 6h1M1 7h1M1 9h1M10 15h1" />
<path stroke="#e7e7de" d="M10 1h3M15 4h1M15 5h1M15 6h1M15 7h1M1 8h1M15 9h1M1 10h1M14 14h1M13 15h1" />
<path stroke="#e6e6dd" d="M13 1h1M15 2h1M15 3h1M15 8h1M15 10h1M1 11h1M1 12h1M1 13h1M14 15h1M6 16h1" />
<path stroke="#e4e4d9" d="M14 1h1" />
<path stroke="#f3f3ef" d="M15 1h1M4 2h1" />
<path stroke="#f5f5f1" d="M3 2h1M2 3h2" />
<path stroke="#f2f2ed" d="M5 2h2M4 3h1" />
<path stroke="#f1f1ec" d="M7 2h2M5 3h2" />
<path stroke="#f0f0ea" d="M10 2h2M2 4h1M2 5h1M2 6h1M2 7h1M2 8h3M2 9h1M2 10h3M11 10h1" />
<path stroke="#efefe9" d="M12 2h1M9 3h3M2 11h3M12 11h1M2 12h4M11 12h2M2 13h5M11 13h2" />
<path stroke="#ecece4" d="M14 2h1M14 3h1M2 14h1M4 15h2M11 15h2" />
<path stroke="#c9c9c2" d="M8 3h1M7 4h3M6 5h5M5 6h3M9 6h3M5 11h3M9 11h3M6 12h5M7 13h3M8 14h1" />
<path stroke="#edede6" d="M13 3h1M8 6h1M7 7h2M5 8h4M6 9h2M5 10h3M12 10h1M3 14h4M11 14h2" />
<path stroke="#e6e6dc" d="M15 11h1M15 12h1M15 13h1M3 16h3M7 16h3M11 16h2" />
<path stroke="#e5e5db" d="M1 14h1M2 16h1M10 16h1M13 16h1" />
<path stroke="#e9e9e0" d="M13 14h1M9 15h1" />
<path stroke="#e3e3d8" d="M15 14h1M1 15h1M15 15h1M14 16h1" />
</svg>